<svg width="595" height="142" viewBox="0 0 595 142" fill="none" xmlns="http://www.w3.org/2000/svg">
<path d="M87.9324 25.7148H0V116.284H38.273C34.3075 114.847 30.8803 112.225 28.457 108.772C26.0337 105.32 24.7318 101.206 24.7283 96.9879C24.7264 94.2872 25.2567 91.6126 26.2889 89.117C27.3211 86.6213 28.8349 84.3534 30.7439 82.4431C32.6529 80.5327 34.9197 79.0173 37.4146 77.9834C39.9095 76.9494 42.5838 76.4172 45.2845 76.4172C50.7363 76.4172 55.9648 78.5829 59.8199 82.438C63.6749 86.293 65.8407 91.5216 65.8407 96.9734C65.8371 101.191 64.5352 105.306 62.1119 108.758C59.6887 112.21 56.2615 114.833 52.2959 116.269H90.5689V25.7148H87.9324Z" fill="#0F172B"/>
<path d="M126.959 28.6619H149.21L172.712 85.9984H173.712L197.213 28.6619H219.464V114H201.963V58.4553H201.255L179.17 113.583H167.253L145.168 58.2469H144.46V114H126.959V28.6619ZM252.247 115.208C248.164 115.208 244.525 114.5 241.33 113.083C238.135 111.639 235.607 109.514 233.746 106.708C231.913 103.874 230.996 100.346 230.996 96.124C230.996 92.5683 231.649 89.582 232.955 87.1652C234.26 84.7484 236.038 82.8038 238.288 81.3315C240.538 79.8592 243.094 78.748 245.955 77.998C248.844 77.248 251.872 76.7202 255.039 76.4146C258.762 76.0257 261.762 75.6645 264.04 75.3312C266.317 74.9701 267.97 74.4423 268.998 73.7478C270.026 73.0533 270.54 72.0255 270.54 70.6643V70.4143C270.54 67.7752 269.707 65.7334 268.04 64.2889C266.401 62.8444 264.067 62.1221 261.039 62.1221C257.845 62.1221 255.303 62.8305 253.414 64.2472C251.525 65.6362 250.275 67.3863 249.664 69.4975L233.246 68.1641C234.08 64.275 235.719 60.9137 238.163 58.0802C240.608 55.219 243.761 53.0244 247.622 51.4965C251.511 49.9409 256.011 49.1631 261.123 49.1631C264.679 49.1631 268.081 49.5798 271.332 50.4131C274.61 51.2465 277.513 52.5383 280.04 54.2884C282.596 56.0385 284.61 58.2886 286.082 61.0387C287.555 63.7611 288.291 67.0252 288.291 70.8309V114H271.457V105.125H270.957C269.929 107.125 268.554 108.889 266.831 110.416C265.109 111.917 263.04 113.097 260.623 113.958C258.206 114.792 255.414 115.208 252.247 115.208ZM257.331 102.958C259.942 102.958 262.248 102.444 264.248 101.416C266.248 100.36 267.818 98.9436 268.957 97.1657C270.095 95.3879 270.665 93.3739 270.665 91.1237V84.3317C270.109 84.6928 269.345 85.0262 268.373 85.3317C267.429 85.6095 266.359 85.8734 265.165 86.1235C263.97 86.3457 262.776 86.554 261.581 86.7485C260.387 86.9152 259.303 87.068 258.331 87.2068C256.247 87.5124 254.428 87.9986 252.872 88.6653C251.317 89.332 250.108 90.2348 249.247 91.3737C248.386 92.4849 247.955 93.8739 247.955 95.5406C247.955 97.9574 248.83 99.8048 250.58 101.083C252.358 102.333 254.609 102.958 257.331 102.958ZM331.231 115.25C324.647 115.25 318.98 113.917 314.23 111.25C309.507 108.555 305.868 104.749 303.313 99.8325C300.757 94.8878 299.479 89.0403 299.479 82.2899C299.479 75.7062 300.757 69.9281 303.313 64.9556C305.868 59.9831 309.466 56.1079 314.105 53.33C318.772 50.552 324.244 49.1631 330.522 49.1631C334.745 49.1631 338.676 49.8437 342.315 51.2049C345.982 52.5383 349.176 54.5523 351.899 57.2469C354.649 59.9415 356.788 63.3305 358.316 67.4141C359.843 71.4699 360.607 76.2201 360.607 81.6649V86.5401H306.563V75.5395H343.898C343.898 72.9838 343.343 70.7198 342.231 68.7475C341.12 66.7752 339.578 65.2334 337.606 64.1222C335.662 62.9833 333.398 62.4138 330.814 62.4138C328.12 62.4138 325.73 63.0388 323.647 64.2889C321.591 65.5112 319.98 67.1641 318.813 69.2475C317.647 71.3032 317.049 73.595 317.022 76.1229V86.5818C317.022 89.7487 317.605 92.4849 318.772 94.7906C319.966 97.0963 321.647 98.8742 323.814 100.124C325.981 101.374 328.55 101.999 331.522 101.999C333.495 101.999 335.3 101.722 336.939 101.166C338.578 100.61 339.981 99.777 341.148 98.6658C342.315 97.5546 343.204 96.1935 343.815 94.5823L360.232 95.6657C359.399 99.6103 357.691 103.055 355.107 106C352.551 108.916 349.246 111.194 345.19 112.833C341.162 114.444 336.509 115.25 331.231 115.25ZM425.444 68.2475L409.193 69.2475C408.916 67.8586 408.318 66.6085 407.402 65.4973C406.485 64.3584 405.277 63.4555 403.776 62.7888C402.304 62.0943 400.54 61.7471 398.485 61.7471C395.734 61.7471 393.415 62.3305 391.526 63.4972C389.637 64.6362 388.692 66.164 388.692 68.0808C388.692 69.6087 389.303 70.9004 390.526 71.956C391.748 73.0116 393.845 73.8589 396.818 74.4978L408.402 76.8313C414.624 78.1091 419.263 80.1648 422.319 82.9983C425.375 85.8318 426.903 89.5542 426.903 94.1656C426.903 98.3602 425.667 102.041 423.194 105.208C420.75 108.375 417.388 110.847 413.11 112.625C408.86 114.375 403.957 115.25 398.401 115.25C389.928 115.25 383.178 113.486 378.15 109.958C373.15 106.402 370.219 101.569 369.358 95.4573L386.817 94.5406C387.345 97.1241 388.623 99.0964 390.651 100.458C392.679 101.791 395.276 102.458 398.443 102.458C401.554 102.458 404.054 101.86 405.943 100.666C407.86 99.4436 408.832 97.8741 408.86 95.9573C408.832 94.3461 408.152 93.0266 406.818 91.9988C405.485 90.9432 403.429 90.1376 400.651 89.582L389.567 87.3735C383.317 86.1235 378.664 83.9567 375.608 80.8732C372.58 77.7897 371.066 73.8589 371.066 69.0808C371.066 64.9695 372.178 61.4276 374.4 58.4553C376.65 55.4829 379.803 53.1911 383.859 51.5799C387.942 49.9687 392.72 49.1631 398.193 49.1631C406.277 49.1631 412.638 50.8715 417.277 54.2884C421.944 57.7052 424.667 62.3583 425.444 68.2475ZM472.124 49.9965V63.3305H433.58V49.9965H472.124ZM442.331 34.6623H460.082V94.3322C460.082 95.9712 460.332 97.2491 460.832 98.1658C461.332 99.0547 462.026 99.6798 462.915 100.041C463.832 100.402 464.888 100.583 466.082 100.583C466.915 100.583 467.749 100.513 468.582 100.374C469.416 100.208 470.054 100.083 470.499 99.9992L473.291 113.208C472.402 113.486 471.152 113.806 469.541 114.167C467.929 114.556 465.971 114.792 463.665 114.875C459.387 115.042 455.637 114.472 452.415 113.167C449.22 111.861 446.734 109.833 444.956 107.083C443.178 104.333 442.303 100.86 442.331 96.6657V34.6623ZM483.687 114V49.9965H500.896V61.1637H501.563C502.73 57.1913 504.688 54.1911 507.438 52.1632C510.189 50.1076 513.355 49.0797 516.939 49.0797C517.828 49.0797 518.786 49.1353 519.814 49.2464C520.842 49.3575 521.745 49.5103 522.523 49.7048V65.4556C521.689 65.2056 520.536 64.9834 519.064 64.7889C517.592 64.5945 516.245 64.4973 515.022 64.4973C512.411 64.4973 510.077 65.0667 508.022 66.2057C505.994 67.3169 504.383 68.8725 503.188 70.8726C502.021 72.8727 501.438 75.1784 501.438 77.7897V114H483.687ZM557.639 115.25C551.167 115.25 545.569 113.875 540.847 111.125C536.152 108.347 532.527 104.486 529.971 99.5409C527.415 94.5684 526.137 88.8042 526.137 82.2482C526.137 75.6368 527.415 69.8587 529.971 64.9139C532.527 59.9415 536.152 56.0801 540.847 53.33C545.569 50.552 551.167 49.1631 557.639 49.1631C564.112 49.1631 569.695 50.552 574.39 53.33C579.113 56.0801 582.752 59.9415 585.307 64.9139C587.863 69.8587 589.141 75.6368 589.141 82.2482C589.141 88.8042 587.863 94.5684 585.307 99.5409C582.752 104.486 579.113 108.347 574.39 111.125C569.695 113.875 564.112 115.25 557.639 115.25ZM557.723 101.499C560.667 101.499 563.126 100.666 565.098 98.9992C567.07 97.3046 568.556 94.9989 569.556 92.0821C570.584 89.1653 571.098 85.8457 571.098 82.1232C571.098 78.4008 570.584 75.0812 569.556 72.1644C568.556 69.2475 567.07 66.9418 565.098 65.2473C563.126 63.5528 560.667 62.7055 557.723 62.7055C554.75 62.7055 552.25 63.5528 550.222 65.2473C548.222 66.9418 546.708 69.2475 545.68 72.1644C544.68 75.0812 544.18 78.4008 544.18 82.1232C544.18 85.8457 544.68 89.1653 545.68 92.0821C546.708 94.9989 548.222 97.3046 550.222 98.9992C552.25 100.666 554.75 101.499 557.723 101.499Z" fill="#0F172B"/>
</svg>
